name rise34.3697peak60.0498fall86.3158.mot
datacolumns 19
datarows 21
range 9.25831100000000 9.29163200000000
endheader
time	ground_force1_vx	ground_force1_vy	ground_force1_vz	ground_force1_px	ground_force1_py	ground_force1_pz	ground_force2_vx	ground_force2_vy	ground_force2_vz	ground_force2_px	ground_force2_py	ground_force2_pz	ground_torque1_x	ground_torque1_y	ground_torque1_z	ground_torque2_x	ground_torque2_y	ground_torque2_z	
9.25831100000000	2.78396900000000	701.74050099999999	43.67196900000000	0.30047600000000	0.00000000000000	0.12128700000000	0.00000000000000	0.00000000000000	0.00000000000000	0.00000000000000	0.00000000000000	0.00000000000000	0.00000000000000	24.61826700000000	0.00000000000000	0.00000000000000	0.00000000000000	0.00000000000000	
9.25996900000000	2.46776900000000	702.25870999999995	43.68721700000000	0.29971700000000	0.00000000000000	0.12122500000000	0.00000000000000	0.00000000000000	0.00000000000000	0.00000000000000	0.00000000000000	0.00000000000000	0.00000000000000	24.66427300000000	0.00000000000000	0.00000000000000	0.00000000000000	0.00000000000000	
9.26162900000000	2.14475000000000	702.80527300000006	43.70035900000000	0.29896500000000	0.00000000000000	0.12115900000000	0.00000000000000	0.00000000000000	0.00000000000000	0.00000000000000	0.00000000000000	0.00000000000000	0.00000000000000	24.71197200000000	0.00000000000000	0.00000000000000	0.00000000000000	0.00000000000000	
9.26330200000000	1.81469100000000	703.37996799999996	43.71118700000000	0.29822000000000	0.00000000000000	0.12109100000000	0.00000000000000	0.00000000000000	0.00000000000000	0.00000000000000	0.00000000000000	0.00000000000000	0.00000000000000	24.76124400000000	0.00000000000000	0.00000000000000	0.00000000000000	0.00000000000000	
9.26496800000000	1.47738900000000	703.98267999999996	43.71953000000000	0.29748100000000	0.00000000000000	0.12102000000000	0.00000000000000	0.00000000000000	0.00000000000000	0.00000000000000	0.00000000000000	0.00000000000000	0.00000000000000	24.81198100000000	0.00000000000000	0.00000000000000	0.00000000000000	0.00000000000000	
9.26663000000000	1.13266900000000	704.61339899999996	43.72524500000000	0.29674800000000	0.00000000000000	0.12094600000000	0.00000000000000	0.00000000000000	0.00000000000000	0.00000000000000	0.00000000000000	0.00000000000000	0.00000000000000	24.86408600000000	0.00000000000000	0.00000000000000	0.00000000000000	0.00000000000000	
9.26829600000000	0.78037900000000	705.27222500000005	43.72822600000000	0.29602000000000	0.00000000000000	0.12086900000000	0.00000000000000	0.00000000000000	0.00000000000000	0.00000000000000	0.00000000000000	0.00000000000000	0.00000000000000	24.91747500000000	0.00000000000000	0.00000000000000	0.00000000000000	0.00000000000000	
9.26996800000000	0.42039200000000	705.95935499999996	43.72840000000000	0.29529700000000	0.00000000000000	0.12078900000000	0.00000000000000	0.00000000000000	0.00000000000000	0.00000000000000	0.00000000000000	0.00000000000000	0.00000000000000	24.97207000000000	0.00000000000000	0.00000000000000	0.00000000000000	0.00000000000000	
9.27163300000000	0.05261100000000	706.67508899999996	43.72572600000000	0.29457700000000	0.00000000000000	0.12070600000000	0.00000000000000	0.00000000000000	0.00000000000000	0.00000000000000	0.00000000000000	0.00000000000000	0.00000000000000	25.02780800000000	0.00000000000000	0.00000000000000	0.00000000000000	0.00000000000000	
9.27329800000000	-0.32304000000000	707.41981899999996	43.72019800000000	0.29386100000000	0.00000000000000	0.12062100000000	0.00000000000000	0.00000000000000	0.00000000000000	0.00000000000000	0.00000000000000	0.00000000000000	0.00000000000000	25.08463400000000	0.00000000000000	0.00000000000000	0.00000000000000	0.00000000000000	
9.27496300000000	-0.70660300000000	708.19402900000000	43.71184300000000	0.29314800000000	0.00000000000000	0.12053300000000	0.00000000000000	0.00000000000000	0.00000000000000	0.00000000000000	0.00000000000000	0.00000000000000	0.00000000000000	25.14250300000000	0.00000000000000	0.00000000000000	0.00000000000000	0.00000000000000	
9.27662800000000	-1.09809700000000	708.99828400000001	43.70071900000000	0.29243600000000	0.00000000000000	0.12044200000000	0.00000000000000	0.00000000000000	0.00000000000000	0.00000000000000	0.00000000000000	0.00000000000000	0.00000000000000	25.20137900000000	0.00000000000000	0.00000000000000	0.00000000000000	0.00000000000000	
9.27829800000000	-1.49751000000000	709.83322899999996	43.68691700000000	0.29172600000000	0.00000000000000	0.12034900000000	0.00000000000000	0.00000000000000	0.00000000000000	0.00000000000000	0.00000000000000	0.00000000000000	0.00000000000000	25.26123400000000	0.00000000000000	0.00000000000000	0.00000000000000	0.00000000000000	
9.27996800000000	-1.90480300000000	710.69957699999998	43.67055900000000	0.29101600000000	0.00000000000000	0.12025400000000	0.00000000000000	0.00000000000000	0.00000000000000	0.00000000000000	0.00000000000000	0.00000000000000	0.00000000000000	25.32205200000000	0.00000000000000	0.00000000000000	0.00000000000000	0.00000000000000	
9.28163500000000	-2.31990600000000	711.59810700000003	43.65179700000000	0.29030700000000	0.00000000000000	0.12015600000000	0.00000000000000	0.00000000000000	0.00000000000000	0.00000000000000	0.00000000000000	0.00000000000000	0.00000000000000	25.38382200000000	0.00000000000000	0.00000000000000	0.00000000000000	0.00000000000000	
9.28330100000000	-2.74272300000000	712.52964899999995	43.63081500000000	0.28959800000000	0.00000000000000	0.12005600000000	0.00000000000000	0.00000000000000	0.00000000000000	0.00000000000000	0.00000000000000	0.00000000000000	0.00000000000000	25.44653900000000	0.00000000000000	0.00000000000000	0.00000000000000	0.00000000000000	
9.28496300000000	-3.17312800000000	713.49508100000003	43.60782400000000	0.28888700000000	0.00000000000000	0.11995500000000	0.00000000000000	0.00000000000000	0.00000000000000	0.00000000000000	0.00000000000000	0.00000000000000	0.00000000000000	25.51020900000000	0.00000000000000	0.00000000000000	0.00000000000000	0.00000000000000	
9.28662800000000	-3.61096700000000	714.49531899999999	43.58306200000000	0.28817500000000	0.00000000000000	0.11985100000000	0.00000000000000	0.00000000000000	0.00000000000000	0.00000000000000	0.00000000000000	0.00000000000000	0.00000000000000	25.57484200000000	0.00000000000000	0.00000000000000	0.00000000000000	0.00000000000000	
9.28829900000000	-4.05605700000000	715.53130299999998	43.55679500000000	0.28746200000000	0.00000000000000	0.11974600000000	0.00000000000000	0.00000000000000	0.00000000000000	0.00000000000000	0.00000000000000	0.00000000000000	0.00000000000000	25.64045300000000	0.00000000000000	0.00000000000000	0.00000000000000	0.00000000000000	
9.28996300000000	-4.50818800000000	716.60399299999995	43.52931300000000	0.28674500000000	0.00000000000000	0.11964000000000	0.00000000000000	0.00000000000000	0.00000000000000	0.00000000000000	0.00000000000000	0.00000000000000	0.00000000000000	25.70706300000000	0.00000000000000	0.00000000000000	0.00000000000000	0.00000000000000	
9.29163200000000	-4.96712300000000	717.71435499999995	43.50093200000000	0.28602600000000	0.00000000000000	0.11953200000000	0.00000000000000	0.00000000000000	0.00000000000000	0.00000000000000	0.00000000000000	0.00000000000000	0.00000000000000	25.77469700000000	0.00000000000000	0.00000000000000	0.00000000000000	0.00000000000000	
